<svg xmlns="http://www.w3.org/2000/svg" viewBox="0 0 500 500"><g id="freepik--Floor--inject-11"><path d="M459.72,453c0,.15-97.32.26-217.35.26S25,453.16,25,453s97.31-.26,217.38-.26S459.72,452.87,459.72,453Z" style="fill:#263238"></path></g><g id="freepik--Character--inject-11"><path d="M46.6,440.83l-1.29,7.35,1.09.24c4.88,1,24.87,4.91,28.31,4.42,3.84-.55-10.78-6.3-10.78-6.3l.46-3.11Z" style="fill:#FF725E"></path><g style="opacity:0.5"><path d="M51.79,449a6.23,6.23,0,0,0-1.69-4.15,6,6,0,0,0-4-1.94l-.78,5Z" style="fill:#fff"></path></g><g style="opacity:0.5"><path d="M71,449.61s5.07,2.36,4.28,3.13-21.15-2.38-30-4.56l.09-.39,23.7,3.88S70,449.5,71,449.61Z" style="fill:#fff"></path></g><path d="M45.12,447.73a1.1,1.1,0,0,0,.3.08l.87.19,3.22.64c2.72.53,6.49,1.2,10.66,1.85s8,1.15,10.73,1.48l3.26.37.89.09h.31l-.31-.06-.88-.12-3.25-.44c-2.75-.37-6.54-.9-10.71-1.55s-8-1.3-10.67-1.78l-3.23-.57-.88-.15Z" style="fill:#263238"></path><path d="M69.05,451.94a7.81,7.81,0,0,1,.85-1.45,7.42,7.42,0,0,1,1.29-1.07,2.39,2.39,0,0,0-1.46.93A2.48,2.48,0,0,0,69.05,451.94Z" style="fill:#263238"></path><path d="M64.21,448.46s.34-.23.67-.6.54-.7.5-.74-.35.23-.67.6S64.16,448.42,64.21,448.46Z" style="fill:#263238"></path><path d="M62.88,447.47s.35-.09.7-.32.6-.45.57-.5-.34.09-.69.32S62.85,447.42,62.88,447.47Z" style="fill:#263238"></path><path d="M62.23,445.65a4.21,4.21,0,1,0,1,.05A2.08,2.08,0,0,0,62.23,445.65Z" style="fill:#263238"></path><path d="M62.1,444.41a1.85,1.85,0,0,0,1,.47,1.82,1.82,0,0,0,1.1,0,6.64,6.64,0,0,0-1-.24A6.59,6.59,0,0,0,62.1,444.41Z" style="fill:#263238"></path><path d="M65.05,447a3.75,3.75,0,0,0,1.15.17,7.27,7.27,0,0,0,1.26-.08,3.61,3.61,0,0,0,.74-.18.64.64,0,0,0,.34-.31.46.46,0,0,0-.1-.49,2.13,2.13,0,0,0-2.69.21,2.16,2.16,0,0,0-.5.71c-.07.19-.09.3-.07.31a3.16,3.16,0,0,1,.67-.9,2.12,2.12,0,0,1,1.08-.48,1.76,1.76,0,0,1,1.35.3c.16.16,0,.37-.17.45a3.1,3.1,0,0,1-.68.18,7.36,7.36,0,0,1-1.23.12C65.5,447,65.06,447,65.05,447Z" style="fill:#263238"></path><path d="M65.34,447.1s.23-.25.26-.77a1.91,1.91,0,0,0-.19-.89,1.16,1.16,0,0,0-.86-.73.45.45,0,0,0-.43.47,1.35,1.35,0,0,0,.11.55,3.64,3.64,0,0,0,.43.77c.31.41.57.59.59.57s-.2-.24-.46-.65a4.26,4.26,0,0,1-.37-.77c-.12-.26-.16-.71.13-.72s.54.35.68.6a2,2,0,0,1,.21.8A3.94,3.94,0,0,1,65.34,447.1Z" style="fill:#263238"></path><path d="M46.24,442.91s.51,0,1.31.25a5.82,5.82,0,0,1,2.69,1.63,5.9,5.9,0,0,1,1.4,2.82c.15.8.1,1.32.14,1.32a1.15,1.15,0,0,0,.06-.36,5.32,5.32,0,0,0-.05-1,5.57,5.57,0,0,0-1.39-2.94A5.66,5.66,0,0,0,47.58,443a4.73,4.73,0,0,0-1-.12A1,1,0,0,0,46.24,442.91Z" style="fill:#263238"></path><path d="M54.3,447.65a10.92,10.92,0,0,0,2.56.66,10,10,0,0,0,2.64.19c0-.06-1.17-.17-2.6-.41S54.32,447.59,54.3,447.65Z" style="fill:#263238"></path><path d="M50.81,447.1c-.05,0,.06.26.13.55s.11.53.17.54.14-.27,0-.6S50.85,447.06,50.81,447.1Z" style="fill:#263238"></path><path d="M49.75,445.26s0,.24.19.45.32.36.37.33,0-.24-.19-.46S49.8,445.22,49.75,445.26Z" style="fill:#263238"></path><path d="M48,444.22c0,.06.24.09.49.23s.41.3.46.27,0-.31-.36-.47S48,444.16,48,444.22Z" style="fill:#263238"></path><path d="M46.69,443.66s.06.16.2.24.28.1.31.05-.06-.16-.2-.24S46.72,443.6,46.69,443.66Z" style="fill:#263238"></path><path d="M140.4,447.11l.67,7.44,1.12-.05c5-.28,25.28-1.76,28.48-3.13,3.56-1.53-12-3.26-12-3.26l-.37-3.12Z" style="fill:#FF725E"></path><g style="opacity:0.5"><path d="M147.55,453.69a6.26,6.26,0,0,0-2.71-3.57,6.09,6.09,0,0,0-4.34-.84l.56,5Z" style="fill:#fff"></path></g><g style="opacity:0.5"><path d="M166.28,449.22s5.51.94,4.94,1.9-21,3.22-30.15,3.43l0-.4L165,451.7S165.24,449.38,166.28,449.22Z" style="fill:#fff"></path></g><path d="M140.77,454.17h.31l.89-.05,3.28-.22c2.76-.21,6.57-.54,10.78-1s8-1,10.74-1.37L170,451l.88-.15a2.4,2.4,0,0,0,.3-.06l-.31,0L170,451l-3.26.43c-2.74.36-6.54.84-10.74,1.3s-8,.82-10.77,1.07L142,454l-.89.08Z" style="fill:#263238"></path><path d="M165,452a7,7,0,0,1,.43-1.62,7.63,7.63,0,0,1,1-1.37,2.47,2.47,0,0,0-1.17,1.28A2.34,2.34,0,0,0,165,452Z" style="fill:#263238"></path><path d="M159.39,449.89c.05,0,.27-.31.49-.76a2,2,0,0,0,.29-.84s-.27.31-.49.75S159.33,449.86,159.39,449.89Z" style="fill:#263238"></path><path d="M157.85,449.28c.05,0,.31-.18.59-.49s.46-.6.42-.64-.31.18-.59.49S157.81,449.24,157.85,449.28Z" style="fill:#263238"></path><path d="M156.75,447.69a2,2,0,0,0,.95,0,2.09,2.09,0,0,0,.92-.2,2,2,0,0,0-1,0A2.09,2.09,0,0,0,156.75,447.69Z" style="fill:#263238"></path><path d="M156.3,446.53a1.82,1.82,0,0,0,1.08.19,1.76,1.76,0,0,0,1.06-.27,6,6,0,0,0-1.07.05A5.76,5.76,0,0,0,156.3,446.53Z" style="fill:#263238"></path><path d="M159.82,448.25a3.21,3.21,0,0,0,1.15-.13,6.33,6.33,0,0,0,1.2-.41,3.39,3.39,0,0,0,.67-.36.64.64,0,0,0,.25-.39.49.49,0,0,0-.23-.45,2.14,2.14,0,0,0-2.54.91,1.89,1.89,0,0,0-.29.81.68.68,0,0,0,0,.32,3.24,3.24,0,0,1,.42-1,2,2,0,0,1,.91-.75,1.79,1.79,0,0,1,1.38-.06c.2.11.15.34,0,.48a3.33,3.33,0,0,1-.61.35,7.86,7.86,0,0,1-1.16.44C160.26,448.17,159.82,448.22,159.82,448.25Z" style="fill:#263238"></path><path d="M160.13,448.28a1.16,1.16,0,0,0,0-.82,1.75,1.75,0,0,0-.41-.8,1.13,1.13,0,0,0-1-.48.47.47,0,0,0-.3.57,1.34,1.34,0,0,0,.26.49,3.46,3.46,0,0,0,.62.64,1.72,1.72,0,0,0,.71.39s-.25-.18-.61-.51a4.06,4.06,0,0,1-.56-.64c-.19-.22-.34-.65-.06-.73s.61.19.81.4a1.94,1.94,0,0,1,.41.71A4.63,4.63,0,0,1,160.13,448.28Z" style="fill:#263238"></path><path d="M140.59,449.22s.51-.1,1.33-.1a5.65,5.65,0,0,1,5.11,3.22c.36.74.44,1.26.48,1.25s0-.14,0-.37a4.24,4.24,0,0,0-.3-.94,5.48,5.48,0,0,0-5.25-3.31,4.22,4.22,0,0,0-1,.13A1.3,1.3,0,0,0,140.59,449.22Z" style="fill:#263238"></path><path d="M149.61,451.69a10.62,10.62,0,0,0,2.65,0,10.84,10.84,0,0,0,2.6-.5c0-.07-1.18.14-2.62.28S149.61,451.62,149.61,451.69Z" style="fill:#263238"></path><path d="M146.1,452.07c0,.05.12.24.27.49s.24.49.31.48.06-.29-.12-.59S146.13,452,146.1,452.07Z" style="fill:#263238"></path><path d="M144.59,450.57c0,.05.1.22.31.39s.4.26.44.22-.1-.22-.3-.39S144.63,450.52,144.59,450.57Z" style="fill:#263238"></path><path d="M142.62,450c0,.06.25,0,.53.09s.48.19.52.14-.14-.28-.48-.35S142.59,450,142.62,450Z" style="fill:#263238"></path><path d="M141.23,449.82c0,.06.1.14.25.18s.29,0,.31,0-.1-.14-.25-.18S141.24,449.76,141.23,449.82Z" style="fill:#263238"></path><path d="M145.62,165c-1.43-7.65-9.88-11.9-13.18-19-1.29-2.74-1.75-5.83-3.16-8.51a13.69,13.69,0,0,0-16.69-6.05l-.53.82c3.42,7.18,6.83,12.11,10.24,19.28a25.71,25.71,0,0,1,2.72,7.85c.31,2.77-.43,5.81-2.57,7.59-1.72,1.42-4,1.85-5.9,3.09a9.62,9.62,0,0,0-3.77,8.94,16.19,16.19,0,0,0,4.45,9c2.2,2.41,5.68,4.47,8.58,3,1.47-.76,2.38-2.24,3.46-3.49,2.22-2.55,5.28-4.17,8-6.17C142.49,177.56,146.81,171.37,145.62,165Z" style="fill:#263238"></path><path d="M219.16,200.56c-1.92,1.75-12.37,10.53-12.37,10.53l-10.37-9.44c.27-.77,2.81-5.13,3.1-6.22a8.29,8.29,0,0,0,.26-2.89,13.25,13.25,0,0,0-.64-3.56c-.46-1,.56-2.06,1.44-1.56s2.2,3.28,2.16,6.86,14-4.64,16-2.63Z" style="fill:#ffbe9d"></path><path d="M130,186.47l34.4,41.17L196,199.08l13.78,13.44s-39.65,43.63-45.7,43.32-26.6-13.9-26.6-13.9Z" style="fill:#FF725E"></path><path d="M208.09,180.34a.56.56,0,0,0-.7.33L198,204.25a.89.89,0,0,0,.45,1.14l11.1,5.3a.9.9,0,0,0,1.21-.46l10.51-24.44a.9.9,0,0,0-.53-1.2Z" style="fill:#263238"></path><polygon points="207.79 182.04 199.19 203.08 210.82 208.35 219.63 186.04 207.79 182.04" style="fill:#f5f5f5"></polygon><path d="M204.44,218.65a15.46,15.46,0,0,1-2.45-1.73c-1.45-1.15-3.39-2.81-5.42-4.78s-3.73-3.88-4.92-5.3a14.16,14.16,0,0,1-1.79-2.39,21.93,21.93,0,0,1,2.07,2.15c1.25,1.35,3,3.2,5,5.16s3.9,3.66,5.29,4.87A21.72,21.72,0,0,1,204.44,218.65Z" style="fill:#263238"></path><path d="M194.55,203.1c.07.06-.36.4-.31,1.13a1.42,1.42,0,0,0,.51,1,1.3,1.3,0,0,0,2-1.13,1.44,1.44,0,0,0-.63-1,2.31,2.31,0,0,0-1.14-.3s.09-.12.33-.17a1.45,1.45,0,0,1,1,.15,1.72,1.72,0,0,1,.92,1.21,1.73,1.73,0,0,1-2.73,1.57,1.69,1.69,0,0,1-.59-1.4,1.5,1.5,0,0,1,.37-.94C194.4,203.12,194.54,203.08,194.55,203.1Z" style="fill:#263238"></path><path d="M163.06,239.67a5.19,5.19,0,0,1-.51-1.79,16.3,16.3,0,0,1,1-8.81,5,5,0,0,1,.9-1.63,36,36,0,0,0-1.49,6A36.43,36.43,0,0,0,163.06,239.67Z" style="fill:#263238"></path><path d="M168,239.35a5.24,5.24,0,0,1-1.11-1.54,19.15,19.15,0,0,1-2.54-8.76,5.43,5.43,0,0,1,.11-1.9,52.19,52.19,0,0,0,1.13,6.29A51,51,0,0,0,168,239.35Z" style="fill:#263238"></path><polygon points="207.99 185.96 202.3 200.11 210.82 203.6 216.76 189.14 207.99 185.96" style="fill:#ebebeb"></polygon><rect x="204.07" y="198.79" width="6.92" height="1.71" rx="0.73" transform="translate(93.03 -64.58) rotate(22.68)" style="fill:#FF725E"></rect><rect x="208.22" y="189.44" width="6.75" height="0.98" transform="translate(80.5 -62.38) rotate(20.63)" style="fill:#455a64"></rect><rect x="206.5" y="192.47" width="7.46" height="1.93" transform="translate(81.65 -61.67) rotate(20.63)" style="fill:#e0e0e0"></rect><rect x="205.34" y="195.37" width="7.46" height="1.93" transform="translate(82.6 -61.08) rotate(20.63)" style="fill:#e0e0e0"></rect><path d="M218.79,191.65c-1.61.26-3.57.42-5.18.69a3,3,0,0,0-1.3.43A1,1,0,0,0,212,194c.25.45.89.49,1.41.48l3.55-.12a18.75,18.75,0,0,0-4.47.75c-.66.22-1.4.67-1.42,1.37a1.31,1.31,0,0,0,1.18,1.18,14.78,14.78,0,0,0,1.86,0s2.43,0,2.53.36c-1.51,0-3.52.31-5,.45-.42,0-.61.6-.71,1a.94.94,0,0,0,.44,1.06,1.36,1.36,0,0,0,.6.06l5.88-.18" style="fill:#ffbe9d"></path><path d="M117.84,184s7.15-.84,12.17,2.46c4.53,3,20.43,48.54,19.81,62.06s1.11,37.36,3.89,47.18,4.88,95-17,135.58l-40.75-5.72,12.74-109.43-1.3-99.27Z" style="fill:#FF725E"></path><g style="opacity:0.30000000000000004"><path d="M115.49,184s7.16-.84,12.18,2.46c4.53,3,20.42,48.54,19.81,62.06s1.1,37.36,3.89,47.18,4.88,95-17,135.58l-37.25-5.72,9.24-109.43L105,216.87Z"></path></g><path d="M100.51,181.91S78.1,179.5,84.09,211.53l5.76,33.7,36.59,22.14c4.94,1.33.74-23,8.18-34.26,2.79-4.21,3-7.36,2.79-9.3.71-7.35-5.18-11.93-6-19.36-.92-10.76-.88-16.72-5.56-17.93l-25.32-4.61" style="fill:#455a64"></path><path d="M131.82,201.89a9.83,9.83,0,0,0,0,4.72,19,19,0,0,0,2,4.78,41.5,41.5,0,0,1,2.86,5.78,18.41,18.41,0,0,1,.15,11.61,16.65,16.65,0,0,1-1.42,3.25,5.38,5.38,0,0,1-.74,1.08,30.13,30.13,0,0,0,1.81-4.44,18.9,18.9,0,0,0-.29-11.32,44.93,44.93,0,0,0-2.79-5.73,18.15,18.15,0,0,1-1.9-4.93,8.92,8.92,0,0,1-.06-3.56,5.38,5.38,0,0,1,.27-.94C131.75,202,131.8,201.88,131.82,201.89Z" style="fill:#263238"></path><path d="M120.6,184.22c-.53-5.51-1-11.32-1-11.32s7-1.88,7.54-11.29c.53-9-2.18-24.6-2.18-24.6v-.79c-10.63-3.16-23.21-3-29.69,5.86h0l5,44.7c.59,5.19,5.51,8.83,11.06,8.16h0C117,194.27,121.1,189.47,120.6,184.22Z" style="fill:#ffbe9d"></path><path d="M125,148.36a1.2,1.2,0,0,1-1,1.31,1.14,1.14,0,0,1-1.33-.95,1.2,1.2,0,0,1,1-1.31A1.14,1.14,0,0,1,125,148.36Z" style="fill:#263238"></path><path d="M125,147.05c-.14.17-1.1-.4-2.38-.28s-2.15.87-2.31.72,0-.35.43-.69a3.27,3.27,0,0,1,1.83-.77,3.12,3.12,0,0,1,1.91.42C124.87,146.71,125,147,125,147.05Z" style="fill:#263238"></path><path d="M111.68,150.09a1.2,1.2,0,0,1-1,1.31,1.14,1.14,0,0,1-1.33-1,1.2,1.2,0,0,1,1-1.31A1.14,1.14,0,0,1,111.68,150.09Z" style="fill:#263238"></path><path d="M111.67,148.83c-.13.17-1.1-.41-2.37-.28s-2.15.86-2.31.72.05-.36.43-.7a3.27,3.27,0,0,1,1.83-.76,3.14,3.14,0,0,1,1.91.41C111.58,148.49,111.74,148.75,111.67,148.83Z" style="fill:#263238"></path><path d="M117.25,157.85a8.54,8.54,0,0,1,2-.57c.32-.07.62-.17.65-.39a1.57,1.57,0,0,0-.31-.95l-1.21-2.39a43.92,43.92,0,0,1-2.81-6.29,42.43,42.43,0,0,1,3.31,6.05l1.17,2.41a1.89,1.89,0,0,1,.3,1.26.81.81,0,0,1-.49.53,1.88,1.88,0,0,1-.55.13A7.76,7.76,0,0,1,117.25,157.85Z" style="fill:#263238"></path><path d="M119.62,172.9a23.73,23.73,0,0,1-12.73-2.09s3.63,6.06,12.82,4.28Z" style="fill:#eb996e"></path><path d="M117,161a2.31,2.31,0,0,0-2.15-.65,2.1,2.1,0,0,0-1.38.92,1.34,1.34,0,0,0,0,1.53,1.57,1.57,0,0,0,1.72.26,4.86,4.86,0,0,0,1.54-1.14,1.45,1.45,0,0,0,.33-.41.44.44,0,0,0-.05-.48" style="fill:#FF725E"></path><path d="M113.57,159.11c.21,0,.35,1.35,1.63,2.22s2.75.57,2.78.76-.3.31-.93.38a3.42,3.42,0,0,1-2.31-.55,3.09,3.09,0,0,1-1.28-1.88C113.35,159.47,113.48,159.11,113.57,159.11Z" style="fill:#263238"></path><path d="M76.71,310.17,62.5,368.73S45.56,438.85,45,440.7l-.53,2.18,23.87,1.8L109.7,314.61Z" style="fill:#263238"></path><path d="M119.68,351.28c3.86,18.67,18,97,18,97l24.21-2.49-13.77-99.91a32.81,32.81,0,0,0-1.58-7.66l-22.63-67.85L81.35,243.3c-.42,0-6.89,17.49-6,29.61A31.05,31.05,0,0,0,80.82,288c2.71,3.95,6.48,9.46,7.32,10.74C89.49,300.78,119.68,351.28,119.68,351.28Z" style="fill:#263238"></path><path d="M71.27,266.82c-1.16,4.22-2.13,8.49-2.88,12.8-2.72,15.69-9.64,53.87-14.13,64-5.69,12.8-14.93,61.15-12.09,70s64.71,17.78,64.71,17.78,3.55-57.95,7.11-72.52,11-46.58,12.08-65.42.71-51.55-5.33-71.81-19.94-41.55-19.94-41.55-11.88,3.28-15.93,8c0,0-4.94,6.06-5,11.83s-2.74,33.2-4.53,49.14C74.78,253.62,72.77,261.41,71.27,266.82Z" style="fill:#FF725E"></path><path d="M126.13,292.5a.85.85,0,0,1,0-.29c0-.22,0-.5,0-.85,0-.78-.09-1.87-.16-3.26a105,105,0,0,0-1.15-12,40.15,40.15,0,0,0-2.17-8,30.76,30.76,0,0,0-4.77-8.14c-2.05-2.63-4.48-5.18-6.84-8a47.92,47.92,0,0,1-3.39-4.46,25.74,25.74,0,0,1-2.63-5.15,16.81,16.81,0,0,1-.62-11.25,22.53,22.53,0,0,1,2.61-4.74,9.07,9.07,0,0,0,1-2.3,3.44,3.44,0,0,0,.09-1.19,2.4,2.4,0,0,0-.4-1.07,3.59,3.59,0,0,0-1.86-1.34c-.75-.28-1.54-.49-2.29-.84a4.45,4.45,0,0,1-1.87-1.56,5.57,5.57,0,0,1-.8-2.21,14.77,14.77,0,0,1,.11-4.37c.2-1.37.39-2.69.57-3.94.74-5,1.33-9.06,1.75-11.9.22-1.38.38-2.46.5-3.24l.15-.83a2.45,2.45,0,0,1,.06-.29.91.91,0,0,1,0,.29c0,.22,0,.5-.09.85-.1.78-.23,1.86-.41,3.24-.38,2.86-.92,6.92-1.58,11.93-.17,1.26-.35,2.58-.54,3.95a14.64,14.64,0,0,0-.09,4.24,5.15,5.15,0,0,0,.75,2,3.91,3.91,0,0,0,1.7,1.4c.69.32,1.47.52,2.26.81a4.08,4.08,0,0,1,2.1,1.52,3,3,0,0,1,.47,1.27,3.88,3.88,0,0,1-.1,1.36,8.9,8.9,0,0,1-1.08,2.44,22.53,22.53,0,0,0-2.56,4.66,16.37,16.37,0,0,0,.63,10.9,31.72,31.72,0,0,0,5.92,9.46c2.34,2.8,4.77,5.36,6.83,8A31.49,31.49,0,0,1,123,268a39.93,39.93,0,0,1,2.13,8.06,93.59,93.59,0,0,1,1,12q0,2.09.06,3.27v.85C126.14,292.4,126.13,292.5,126.13,292.5Z" style="fill:#263238"></path><path d="M118.24,300.42s.05-.16.29-.32a1.67,1.67,0,0,1,1.17-.2,1.64,1.64,0,0,1,1.34,1.18,1.78,1.78,0,0,1-2.94,1.82,1.63,1.63,0,0,1-.44-1.73,1.69,1.69,0,0,1,.74-.94c.25-.13.41-.13.42-.1a2.13,2.13,0,0,0-.8,1.14,1.24,1.24,0,0,0,.4,1.27,1.31,1.31,0,0,0,2.15-1.34,1.26,1.26,0,0,0-.95-.94A2.31,2.31,0,0,0,118.24,300.42Z" style="fill:#263238"></path><path d="M111.61,334.88s.06-.16.3-.31a1.61,1.61,0,0,1,1.17-.21,1.66,1.66,0,0,1,1.34,1.18,1.78,1.78,0,0,1-2.94,1.82,1.69,1.69,0,0,1,.29-2.66c.25-.14.42-.14.42-.11a2.26,2.26,0,0,0-.8,1.14,1.26,1.26,0,0,0,.41,1.27,1.42,1.42,0,0,0,1.59.16,1.43,1.43,0,0,0,.56-1.5,1.26,1.26,0,0,0-1-.94A2.37,2.37,0,0,0,111.61,334.88Z" style="fill:#263238"></path><path d="M111.4,291.77a1.1,1.1,0,0,1,0,.33q0,.38-.09,1c-.09.89-.23,2.15-.41,3.76-.38,3.27-1,8-1.83,13.82-.44,2.91-1,6.09-1.67,9.48a30.92,30.92,0,0,1-1.44,5.2,5.65,5.65,0,0,1-.31.66,2.5,2.5,0,0,1-.5.57,5.26,5.26,0,0,1-1.24.8,15.24,15.24,0,0,1-2.76.95A65.58,65.58,0,0,1,89,329.7a125.66,125.66,0,0,1-13.12-.15l-.56-.07a.81.81,0,0,1-.6-.43,3.14,3.14,0,0,1-.31-1.14,14.64,14.64,0,0,1-.06-2.19c0-1.44.18-2.85.34-4.24.33-2.79.76-5.5,1.21-8.13.9-5.26,1.89-10.21,2.87-14.74l0-.17H79a141,141,0,0,0,23.67-4.11c2.81-.74,5-1.41,6.49-1.86l1.73-.53a4.57,4.57,0,0,1,.56-.16l-.15.06-.44.16c-.39.15-.92.35-1.66.6-1.47.5-3.66,1.2-6.46,2A133.84,133.84,0,0,1,79,298.88l.2-.18c-1,4.53-1.93,9.48-2.82,14.73-.44,2.63-.86,5.34-1.18,8.11-.16,1.38-.3,2.79-.34,4.2a13.49,13.49,0,0,0,.06,2.11,3,3,0,0,0,.24.94c.09.12.12.16.23.18l.53.06a124.45,124.45,0,0,0,13.06.16,64.89,64.89,0,0,0,12-1.33,14.32,14.32,0,0,0,2.68-.91,3.08,3.08,0,0,0,1.83-1.79,30.6,30.6,0,0,0,1.44-5.1c.72-3.37,1.26-6.55,1.72-9.45.93-5.81,1.56-10.52,2-13.78.22-1.61.39-2.87.51-3.76.06-.4.1-.73.14-1S111.4,291.77,111.4,291.77Z" style="fill:#263238"></path><path d="M110.76,299.06a6,6,0,0,1-1.19.62c-.78.37-1.94.85-3.38,1.39A63.82,63.82,0,0,1,82.49,305c-1.55,0-2.8-.13-3.65-.23a7.24,7.24,0,0,1-1.33-.19,6,6,0,0,1,1.34,0c.86,0,2.1.06,3.64.06a73,73,0,0,0,23.57-3.92c1.46-.5,2.63-.93,3.43-1.24A6.74,6.74,0,0,1,110.76,299.06Z" style="fill:#263238"></path><path d="M54.64,270.86l.09-.47c.07-.34.17-.79.3-1.38.29-1.22.71-3,1.24-5.26,1.1-4.56,2.77-11.14,4.94-19.24l3.59-13.24c1.3-4.76,2.67-9.85,4.3-15.16a122.75,122.75,0,0,1,6.17-16.29,75.38,75.38,0,0,1,4.43-8.09,29.25,29.25,0,0,1,2.77-3.85,11.74,11.74,0,0,1,3.77-3,6.51,6.51,0,0,1,4.84-.38,8.32,8.32,0,0,1,3.86,2.83c2,2.58,2.5,5.82,2.79,8.79.51,6,1,11.82,1.47,17.35.92,11.05,1.75,21,2.45,29.36s1.23,15.1,1.61,19.8c.18,2.32.32,4.13.41,5.39,0,.6.07,1.06.1,1.4a4.32,4.32,0,0,1,0,.48s0-.16-.07-.47-.08-.81-.14-1.4l-.51-5.38c-.42-4.7-1-11.45-1.77-19.79s-1.6-18.31-2.57-29.35c-.48-5.53-1-11.33-1.5-17.34-.29-2.95-.79-6.1-2.68-8.52A7.82,7.82,0,0,0,90.92,185a5.93,5.93,0,0,0-4.45.35,11.36,11.36,0,0,0-3.61,2.9A28.16,28.16,0,0,0,80.14,192a75.18,75.18,0,0,0-4.41,8,123.56,123.56,0,0,0-6.17,16.21c-1.64,5.29-3,10.38-4.34,15.13s-2.54,9.18-3.65,13.22c-2.22,8.09-3.94,14.66-5.1,19.2-.58,2.26-1,4-1.33,5.24-.16.58-.27,1-.36,1.36S54.64,270.86,54.64,270.86Z" style="fill:#455a64"></path><path d="M52.19,267.41c-.39,1.56-7.66,42.93-7.66,42.93l54.09,1.75,7.45-42.9Z" style="fill:#263238"></path><path d="M105.51,270a3.25,3.25,0,0,1-.49.37c-.32.23-.82.55-1.46,1-1.27.82-3.15,2-5.51,3.31s-5.21,2.88-8.46,4.42c-1.63.76-3.32,1.57-5.19,2.24a18,18,0,0,1-6,.88A28.36,28.36,0,0,1,67,279.24,41.7,41.7,0,0,1,59,274c-2.11-1.72-3.71-3.23-4.8-4.28-.54-.53-1-.95-1.24-1.24a3.44,3.44,0,0,1-.4-.46,3,3,0,0,1,.48.38c.33.31.77.69,1.3,1.17,1.13,1,2.76,2.47,4.89,4.14a42.55,42.55,0,0,0,8,5.06,28.33,28.33,0,0,0,11.12,2.84,17.75,17.75,0,0,0,5.87-.84c1.8-.65,3.53-1.45,5.15-2.19,3.24-1.52,6.1-3,8.48-4.31s4.28-2.4,5.59-3.16l1.51-.88A2.18,2.18,0,0,1,105.51,270Z" style="fill:#455a64"></path><path d="M102.2,271.82c.14,0-1.31,9-3.24,20.13S95.35,312,95.21,312s1.31-9,3.24-20.12S102.06,271.8,102.2,271.82Z" style="fill:#455a64"></path><path d="M76.76,280.54c-.15,1.34-.29,2.69-.44,4a3.61,3.61,0,0,0,0,1.27,1.2,1.2,0,0,0,.84.89,1.19,1.19,0,0,0,1.2-.69,3.54,3.54,0,0,0,.29-1.45c.07-1.44.15-2.88.23-4.31H77.12" style="fill:#455a64"></path><path d="M87.9,185.56c4.4-1.48,8.07,4.22,8.57,8.83a98.89,98.89,0,0,1,.3,16c-.79,15.76-7.92,30.83-7.92,30.83L134.09,248l-1.66,17.4-57.21-6.14a13.56,13.56,0,0,1-11.53-17.46C68.8,225.13,77.15,201.16,79,197.19,81.56,191.84,81.85,187.58,87.9,185.56Z" style="fill:#FF725E"></path><path d="M73.06,258.8l.3,0,.86.12,3.31.5c2.9.4,7.11,1,12.4,1.61,10.58,1.25,25.44,2.73,42.51,4l-.27.23c.53-5.53,1.09-11.37,1.66-17.37v0l.22.28-45.23-6.81-.25,0,.08-.23c2.94-9.1,5.19-16.63,6.53-21.93.68-2.64,1.15-4.73,1.44-6.15l.33-1.62c.08-.36.13-.55.13-.55s0,.19-.06.56-.14.92-.28,1.64c-.25,1.43-.69,3.52-1.33,6.18-1.27,5.32-3.46,12.88-6.36,22l-.18-.27,45.26,6.71.24,0,0,.25v0c-.57,6-1.13,11.83-1.66,17.37l0,.25-.24,0c-17.08-1.34-31.94-2.89-42.52-4.23-5.28-.66-9.49-1.3-12.38-1.76L74.2,259l-.85-.16Z" style="fill:#263238"></path><path d="M123.52,264.62a76.31,76.31,0,0,1,.57-9,76.08,76.08,0,0,1,1.1-9,80.53,80.53,0,0,1-.58,9A79.37,79.37,0,0,1,123.52,264.62Z" style="fill:#263238"></path><path d="M129.27,249.57s.12-.07.34,0a1.27,1.27,0,0,1,.78.53,1.3,1.3,0,0,1,.08,1.43,1.5,1.5,0,0,1-2.79-.54,1.45,1.45,0,0,1,.47-1.34c.65-.55,1.22-.36,1.19-.31s-.49.08-.93.57a1.09,1.09,0,0,0-.26,1,1.15,1.15,0,0,0,.83.86,1.12,1.12,0,0,0,1.08-.48,1,1,0,0,0,0-1C129.76,249.68,129.26,249.65,129.27,249.57Z" style="fill:#263238"></path><polygon points="143.84 242.87 145.9 264.3 156.35 264.3 158.85 242.87 143.84 242.87" style="fill:#ebebeb"></polygon><path d="M143.84,240.1a4.48,4.48,0,0,0-1,2.83h17a3.15,3.15,0,0,0-1-2.83Z" style="fill:#455a64"></path><polygon points="145.77 238.13 145.2 240.25 158.01 240.35 157.16 238.11 145.77 238.13" style="fill:#455a64"></polygon><path d="M143.62,248.23c0,.2,1.25,10.79,1.25,10.79h12.77l1.21-10.79Z" style="fill:#455a64"></path><path d="M144.42,246.34l-.33,3.59,12.36.29s0,4.17-1.25,5.42c0,0,1.25,2.5-.14,3.89s-2.22,1-2.22,1,.56,2.78-.83,3.48-19.42-.38-19.42-.38L133.7,252l4-.35C137.87,247.8,141.85,245.89,144.42,246.34Z" style="fill:#ffbe9d"></path><path d="M128.77,137.1a9.19,9.19,0,0,0-3.93-5,6.9,6.9,0,0,0-4.19-.86l0,0,0-.3c-1.34-2.41-4-2.93-6.74-2.47s-5.44,2.46-7.88,3.76c-3.3,1.76-6.45,3.77-9.61,5.78-2.62,1.67-5.3,3.41-7.11,5.93a12.34,12.34,0,0,0-2.07,9.3c.65,3.51,2.81,7.06,1.53,10.39-.86,2.21-3,3.6-4.46,5.5a8.89,8.89,0,0,0-.19,10.36c1.46,2,3.69,3.14,5.73,4.48,3.23,2.13,6.12,4.81,9.6,6.52s7.89,2.26,11.09.08,4.36-6.75,3.77-10.7-2.49-7.55-4-11.24a62.21,62.21,0,0,1-4.11-15c-.29-2.06-.45-4.26.52-6.09.88-1.64,2.53-2.69,4-3.81a31.88,31.88,0,0,0,8.58-9.8,12.51,12.51,0,0,0,3.43,4.8,31.06,31.06,0,0,0,6.73,4.76A15.56,15.56,0,0,0,128.77,137.1Z" style="fill:#263238"></path></g></svg>